<?xml version="1.0" encoding="UTF-8"?><svg id="Layer_1" xmlns="http://www.w3.org/2000/svg" viewBox="0 0 194.58 49.26"><defs><style>.cls-1{fill:#004b80;}.cls-2{fill:#33383e;}.cls-3{fill:#1b77b7;}</style></defs><g id="Group_2"><g id="Group_33"><g id="Group_18"><path id="Path_1" class="cls-3" d="m18.39.46L.05,48.27c-.15.37.02.78.39.93.09.04.18.05.27.05h1.62c10.08,0,26.57-24.47,23.21-33.36h0S19.7.45,19.7.45c-.14-.36-.54-.55-.9-.41-.19.07-.34.22-.41.41"/><path id="Path_2" class="cls-1" d="m29.6,26.53h0l8.2,21.79c.13.37-.07.78-.45.9-.07.02-.15.04-.22.04h-9.73c-14.07,0-2.47-6.76.25-21.87.16-1.17.51-1.75,1.03-1.75.45,0,.69.29.91.89"/></g><g id="Group_17"><path id="Path_3" class="cls-2" d="m127.66,37.75c1.02.58,2.09,1.05,3.21,1.4,1.09.26,2.21.37,3.33.34,2.08.11,4.13-.48,5.83-1.67,1.42-1.09,2.22-2.8,2.14-4.59.04-1.35-.39-2.67-1.2-3.74-1.06-1.21-2.42-2.12-3.94-2.63-1.25-.44-2.45-1.02-3.57-1.73-.49-.32-.81-.86-.83-1.45,0-1.36.85-2.04,2.54-2.04,1.59-.1,3.16.39,4.42,1.37l1.4-3.8c-1.88-.97-3.97-1.48-6.09-1.47-1.87-.08-3.72.45-5.26,1.52-1.35.98-2.13,2.57-2.06,4.24,0,2.7,1.79,4.81,5.37,6.31,1.19.44,2.3,1.04,3.32,1.8.56.49.87,1.21.85,1.96,0,1.36-.94,2.04-2.83,2.04-1.85-.03-3.63-.68-5.06-1.85l-1.58,4.01Z"/><path id="Path_4" class="cls-2" d="m146.79,22.06h-2.68v-3.94h2.68v-4.27l4.85-1.8v6.07h6.35v3.94h-6.35v9.19c-.1,1.11.15,2.22.7,3.18.62.68,1.53,1.03,2.44.93,1.16,0,2.29-.33,3.26-.96v4.5c-1.56.45-3.19.65-4.81.59-1.77.11-3.51-.53-4.77-1.77-1.19-1.4-1.79-3.21-1.67-5.04v-10.61Z"/><path id="Path_5" class="cls-2" d="m173.9,22.72h0c-.97-.58-2.08-.89-3.21-.89-1.18.03-2.29.6-3,1.55-.88,1.06-1.35,2.4-1.31,3.78v11.95h-4.85v-20.98h4.85v1.92c1.37-1.54,3.35-2.39,5.41-2.31,1.31-.07,2.62.19,3.8.76l-1.69,4.22Z"/><path id="Path_6" class="cls-2" d="m188.36,31.19c0,2.94-1.45,4.41-4.37,4.41-2.16,0-3.24-.94-3.24-2.82,0-2.53,1.91-3.8,5.74-3.8.63.03,1.25.11,1.86.26v1.96Zm4.56,1.49v-4.49c0-4.06-.74-6.82-2.21-8.28-1.47-1.46-3.8-2.18-6.96-2.18-2.05-.05-4.09.36-5.96,1.22l1.42,3.67c1.31-.61,2.76-.88,4.2-.79,3.09,0,4.64,1.23,4.64,3.7-.66-.18-1.34-.28-2.02-.29-3.32,0-5.89.69-7.69,2.06-1.79,1.34-2.8,3.47-2.71,5.7-.11,1.81.59,3.57,1.92,4.81,1.49,1.2,3.37,1.8,5.28,1.69,1.18,0,2.34-.24,3.42-.7.94-.34,1.74-.97,2.3-1.79.22.65.61,1.24,1.12,1.7.5.5,1.18.78,1.88.78.57,0,1.14-.07,1.69-.24.59-.25,1.07-.72,1.34-1.3-1.11-.72-1.67-2.47-1.67-5.27"/><path id="Path_7" class="cls-2" d="m110.01,29.39l3.41-10.6,3.41,10.6h-6.83Zm8.03,3.9l2.08,5.82h5.85l-11.15-29.09h-2.76l-11.15,29.09h5.84l2.08-5.82h9.23Z"/><path id="Path_8" class="cls-2" d="m60.35,18.82l-3.41,10.58h6.82l-3.41-10.58Zm6.96,20.29l-2.07-5.81h-9.73l-1.98,5.81h-5.6l11.32-29.05h2.21l11.41,29.05h-5.56Z"/><path id="Path_9" class="cls-2" d="m88.13,23.16c-.9-.78-2.04-1.23-3.24-1.25-1.68-.1-3.33.55-4.47,1.79-1.13,1.46-1.69,3.29-1.57,5.13,0,4.36,2.08,6.53,6.24,6.53.59-.03,1.18-.17,1.71-.42.51-.17.96-.46,1.33-.85v-10.93Zm0,15.94v-1.27c-.57.55-1.27.95-2.04,1.16-.95.33-1.95.5-2.96.5-2.58.13-5.08-.89-6.83-2.78-1.66-1.85-2.49-4.43-2.49-7.75-.13-2.96.9-5.86,2.86-8.09,1.81-2.04,4.43-3.18,7.16-3.12,1.49-.02,2.96.32,4.3.98v-8.68h4.85v29.04h-4.85Z"/></g></g></g></svg>